<svg xmlns="http://www.w3.org/2000/svg" xmlns:xlink="http://www.w3.org/1999/xlink" width="800" zoomAndPan="magnify" viewBox="0 0 600 103.5" height="138" preserveAspectRatio="xMidYMid meet" version="1.0"><defs><clipPath id="7654e5ec1d"><path d="M 2.085938 0.648438 L 598 0.648438 L 598 102.355469 L 2.085938 102.355469 Z M 2.085938 0.648438 " clip-rule="nonzero"/></clipPath><clipPath id="8c9b4f88fa"><path d="M 141.542969 102.355469 L 458.457031 102.355469 L 597.914062 0.648438 L 2.085938 0.648438 Z M 141.542969 102.355469 " clip-rule="nonzero"/></clipPath><clipPath id="e06de24f6a"><path d="M 21.089844 0.648438 L 579 0.648438 L 579 102.355469 L 21.089844 102.355469 Z M 21.089844 0.648438 " clip-rule="nonzero"/></clipPath><clipPath id="90ecff45fd"><path d="M 160.542969 102.355469 L 439.457031 102.355469 L 578.910156 0.648438 L 21.089844 0.648438 Z M 160.542969 102.355469 " clip-rule="nonzero"/></clipPath></defs><g clip-path="url(#7654e5ec1d)"><g clip-path="url(#8c9b4f88fa)"><path fill="#1ab13f" d="M 2.085938 0.648438 L 598.039062 0.648438 L 598.039062 102.355469 L 2.085938 102.355469 Z M 2.085938 0.648438 " fill-opacity="1" fill-rule="nonzero"/></g></g><g clip-path="url(#e06de24f6a)"><g clip-path="url(#90ecff45fd)"><path fill="#008037" d="M 21.089844 0.648438 L 578.898438 0.648438 L 578.898438 102.355469 L 21.089844 102.355469 Z M 21.089844 0.648438 " fill-opacity="1" fill-rule="nonzero"/></g></g></svg>