<svg xmlns="http://www.w3.org/2000/svg" xmlns:xlink="http://www.w3.org/1999/xlink" width="75" zoomAndPan="magnify" viewBox="0 0 482.25 347.999987" height="54" preserveAspectRatio="xMidYMid meet" version="1.0"><defs><clipPath id="b755fc1c73"><path d="M 0.296875 1.03125 L 481.5 1.03125 L 481.5 347.285156 L 0.296875 347.285156 Z M 0.296875 1.03125 " clip-rule="nonzero"/></clipPath><clipPath id="21ed325737"><path d="M 360.949219 1.03125 L 0.296875 1.03125 L 0.296875 347.285156 L 360.949219 347.285156 L 481.164062 174.160156 Z M 360.949219 1.03125 " clip-rule="nonzero"/></clipPath><clipPath id="e82118f3cf"><path d="M 0.296875 0.269531 L 433.507812 0.269531 L 433.507812 345.757812 L 0.296875 345.757812 Z M 0.296875 0.269531 " clip-rule="nonzero"/></clipPath><clipPath id="26a12ba26b"><path d="M 325.089844 0.269531 L 0.296875 0.269531 L 0.296875 345.757812 L 325.089844 345.757812 L 433.355469 173.015625 Z M 325.089844 0.269531 " clip-rule="nonzero"/></clipPath></defs><g clip-path="url(#b755fc1c73)"><g clip-path="url(#21ed325737)"><path fill="#ff8746" d="M 0.296875 1.03125 L 481.804688 1.03125 L 481.804688 347.285156 L 0.296875 347.285156 Z M 0.296875 1.03125 " fill-opacity="1" fill-rule="nonzero"/></g></g><g clip-path="url(#e82118f3cf)"><g clip-path="url(#26a12ba26b)"><path fill="#ff5900" d="M 0.296875 0.269531 L 433.507812 0.269531 L 433.507812 345.757812 L 0.296875 345.757812 Z M 0.296875 0.269531 " fill-opacity="1" fill-rule="nonzero"/></g></g></svg>