<svg xmlns="http://www.w3.org/2000/svg" xmlns:xlink="http://www.w3.org/1999/xlink" width="502" zoomAndPan="magnify" viewBox="0 0 376.5 271.499997" height="362" preserveAspectRatio="xMidYMid meet" version="1.0"><defs><clipPath id="932201a764"><path d="M 0.167969 0.910156 L 375.320312 0.910156 L 375.320312 270.683594 L 0.167969 270.683594 Z M 0.167969 0.910156 " clip-rule="nonzero"/></clipPath><clipPath id="ee6c4051df"><path d="M 94.328125 270.683594 L 375.320312 270.683594 L 375.320312 0.910156 L 94.328125 0.910156 L 0.664062 135.796875 Z M 94.328125 270.683594 " clip-rule="nonzero"/></clipPath><clipPath id="4885c145f2"><path d="M 38 0.3125 L 375.328125 0.3125 L 375.328125 270.089844 L 38 270.089844 Z M 38 0.3125 " clip-rule="nonzero"/></clipPath><clipPath id="0dc47f2cb3"><path d="M 122.273438 270.089844 L 375.328125 270.089844 L 375.328125 0.3125 L 122.273438 0.3125 L 37.921875 135.203125 Z M 122.273438 270.089844 " clip-rule="nonzero"/></clipPath></defs><g clip-path="url(#932201a764)"><g clip-path="url(#ee6c4051df)"><path fill="#ff8746" d="M 375.320312 270.683594 L 0.167969 270.683594 L 0.167969 0.910156 L 375.320312 0.910156 Z M 375.320312 270.683594 " fill-opacity="1" fill-rule="nonzero"/></g></g><g clip-path="url(#4885c145f2)"><g clip-path="url(#0dc47f2cb3)"><path fill="#ff5900" d="M 375.328125 270.089844 L 38.109375 270.089844 L 38.109375 0.3125 L 375.328125 0.3125 Z M 375.328125 270.089844 " fill-opacity="1" fill-rule="nonzero"/></g></g></svg>